<?xml version="1.0" encoding="utf-8"?>
<!-- Generated by IcoMoon.io -->
<!DOCTYPE svg PUBLIC "-//W3C//DTD SVG 1.1//EN" "http://www.w3.org/Graphics/SVG/1.1/DTD/svg11.dtd">
<svg version="1.1" xmlns="http://www.w3.org/2000/svg" xmlns:xlink="http://www.w3.org/1999/xlink" width="16" height="16" viewBox="0 0 16 16">
<path d="M13.063 1h-10.125c-1.616 0-2.938 1.322-2.938 2.938v11.063l3-3h10.063c1.616 0 2.938-1.322 2.938-2.938v-5.125c0-1.616-1.322-2.938-2.938-2.938zM14 9.063c0 0.508-0.429 0.938-0.938 0.938h-11.063v-6.063c0-0.508 0.429-0.938 0.938-0.938h10.125c0.508 0 0.938 0.429 0.938 0.938v5.125zM4 7c0-0.552 0.448-1 1-1s1 0.448 1 1c0 0.552-0.448 1-1 1s-1-0.448-1-1zM7 7c0-0.552 0.448-1 1-1s1 0.448 1 1c0 0.552-0.448 1-1 1s-1-0.448-1-1zM10 7c0-0.552 0.448-1 1-1s1 0.448 1 1c0 0.552-0.448 1-1 1s-1-0.448-1-1z"></path>
</svg>
