<?xml version="1.0" encoding="utf-8"?>
<!-- Generated by IcoMoon.io -->
<!DOCTYPE svg PUBLIC "-//W3C//DTD SVG 1.1//EN" "http://www.w3.org/Graphics/SVG/1.1/DTD/svg11.dtd">
<svg version="1.1" xmlns="http://www.w3.org/2000/svg" xmlns:xlink="http://www.w3.org/1999/xlink" width="16" height="16" viewBox="0 0 16 16">
<path d="M11 4h3.627c-0.078-0.126-0.172-0.266-0.286-0.421-0.347-0.473-0.831-1.027-1.362-1.558s-1.085-1.015-1.558-1.362c-0.155-0.114-0.295-0.208-0.421-0.286v3.627z"></path>
<path d="M10.5 5c-0.276 0-0.5-0.224-0.5-0.5v-4.5h-7.75c-0.689 0-1.25 0.561-1.25 1.25v13.5c0 0.689 0.561 1.25 1.25 1.25h11.5c0.689 0 1.25-0.561 1.25-1.25v-9.75h-4.5zM6.719 14.352l-3.207-3.707 0.914-0.914 2.293 1.793 4.293-3.793 0.914 0.914-5.207 5.707z"></path>
</svg>
