<svg style="position: absolute; width: 0; height: 0; overflow: hidden;" version="1.1" xmlns="http://www.w3.org/2000/svg" xmlns:xlink="http://www.w3.org/1999/xlink">
<defs>
<symbol id="icon-home" viewBox="0 0 16 16">
<title>home</title>
<path class="path1" d="M16 9.226l-8-6.21-8 6.21v-2.532l8-6.21 8 6.21zM14 9v6h-12v-6l6-4.5z"></path>
</symbol>
<symbol id="icon-home4" viewBox="0 0 16 16">
<title>home4</title>
<path class="path1" d="M8 0.5l-8 8 1.5 1.5 1.5-1.5v6.5h10v-6.5l1.5 1.5 1.5-1.5-8-8zM8 7c-0.552 0-1-0.448-1-1s0.448-1 1-1c0.552 0 1 0.448 1 1s-0.448 1-1 1z"></path>
</symbol>
<symbol id="icon-pencil" viewBox="0 0 16 16">
<title>pencil</title>
<path class="path1" d="M13.5 0c1.381 0 2.5 1.119 2.5 2.5 0 0.563-0.186 1.082-0.5 1.5l-1 1-3.5-3.5 1-1c0.418-0.314 0.937-0.5 1.5-0.5zM1 11.5l-1 4.5 4.5-1 9.25-9.25-3.5-3.5-9.25 9.25zM11.181 5.681l-7 7-0.862-0.862 7-7 0.862 0.862z"></path>
</symbol>
<symbol id="icon-pencil2" viewBox="0 0 16 16">
<title>pencil2</title>
<path class="path1" d="M11.445 0.055l-8.945 8.945-2.5 7 6.995-2.5 8.95-8.945c0.5-2-2.5-5-4.5-4.5zM4.5 11l-1-1 8.5-8.5 1 1-8.5 8.5z"></path>
</symbol>
<symbol id="icon-play" viewBox="0 0 16 16">
<title>play</title>
<path class="path1" d="M15.331 2.502c-2.244-0.323-4.724-0.502-7.331-0.502s-5.087 0.179-7.331 0.502c-0.43 1.683-0.669 3.543-0.669 5.498s0.239 3.815 0.669 5.498c2.244 0.323 4.724 0.502 7.331 0.502s5.087-0.179 7.331-0.502c0.43-1.683 0.669-3.543 0.669-5.498s-0.239-3.815-0.669-5.498zM6 11v-6l5 3-5 3z"></path>
</symbol>
<symbol id="icon-play2" viewBox="0 0 16 16">
<title>play2</title>
<path class="path1" d="M6 5.654v4.692l4.064-2.346zM0 4v10h16v-10h-16zM15 13h-14v-1h14v1zM15 11h-14v-6h14v6z"></path>
</symbol>
<symbol id="icon-file-check2" viewBox="0 0 16 16">
<title>file-check2</title>
<path class="path1" d="M11 4h3.627c-0.078-0.126-0.172-0.266-0.286-0.421-0.347-0.473-0.831-1.027-1.362-1.558s-1.085-1.015-1.558-1.362c-0.155-0.114-0.295-0.208-0.421-0.286v3.627z"></path>
<path class="path2" d="M10.5 5c-0.276 0-0.5-0.224-0.5-0.5v-4.5h-7.75c-0.689 0-1.25 0.561-1.25 1.25v13.5c0 0.689 0.561 1.25 1.25 1.25h11.5c0.689 0 1.25-0.561 1.25-1.25v-9.75h-4.5zM6.719 14.352l-3.207-3.707 0.914-0.914 2.293 1.793 4.293-3.793 0.914 0.914-5.207 5.707z"></path>
</symbol>
<symbol id="icon-stack3" viewBox="0 0 16 16">
<title>stack3</title>
<path class="path1" d="M8 9l-8-4 8-4 8 4zM14.398 7.199l1.602 0.801-8 4-8-4 1.602-0.801 6.398 3.199zM14.398 10.199l1.602 0.801-8 4-8-4 1.602-0.801 6.398 3.199z"></path>
</symbol>
<symbol id="icon-folder-remove" viewBox="0 0 16 16">
<title>folder-remove</title>
<path class="path1" d="M15 4h-14l1-2h5.5l0.5 1h6.5l0.5 1zM0 5l1 10h14l1-10h-16zM11.25 7.811l-2.189 2.189 2.189 2.189-1.061 1.061-2.189-2.189-2.189 2.189-1.061-1.061 2.189-2.189-2.189-2.189 1.061-1.061 2.189 2.189 2.189-2.189 1.061 1.061z"></path>
</symbol>
<symbol id="icon-folder3" viewBox="0 0 16 16">
<title>folder3</title>
<path class="path1" d="M9 4l-2-2h-7v13h16v-11h-7zM8.586 5h6.414v0.125h-14v-0.25h7.461l0.125 0.125zM1 14v-0.125h14v0.125h-14zM1 13.625v-0.25h14v0.25h-14zM1 13.125v-0.25h14v0.25h-14zM1 12.625v-0.25h14v0.25h-14zM1 12.125v-0.25h14v0.25h-14zM1 11.625v-0.25h14v0.25h-14zM1 11.125v-0.25h14v0.25h-14zM1 10.625v-0.25h14v0.25h-14zM1 10.125v-0.25h14v0.25h-14zM1 9.625v-0.25h14v0.25h-14zM1 9.125v-0.25h14v0.25h-14zM1 8.625v-0.25h14v0.25h-14zM1 8.125v-0.25h14v0.25h-14zM1 7.625v-0.25h14v0.25h-14zM1 7.125v-0.25h14v0.25h-14zM1 6.625v-0.25h14v0.25h-14zM1 6.125v-0.25h14v0.25h-14zM1 5.625v-0.25h14v0.25h-14zM6.586 3l0.125 0.125h-5.711v-0.125h5.586zM6.961 3.375l0.25 0.25h-6.211v-0.25h5.961zM7.461 3.875l0.25 0.25h-6.711v-0.25h6.461zM7.961 4.375l0.25 0.25h-7.211v-0.25h6.961z"></path>
</symbol>
<symbol id="icon-folder-plus4" viewBox="0 0 16 16">
<title>folder-plus4</title>
<path class="path1" d="M9 4l-2-2h-7v13h16v-11h-7zM15 14h-14v-11h5.586l2 2h6.414v9zM9 7h-2v2h-2v2h2v2h2v-2h2v-2h-2z"></path>
</symbol>
<symbol id="icon-cart" viewBox="0 0 16 16">
<title>cart</title>
<path class="path1" d="M6 14.5c0 0.828-0.672 1.5-1.5 1.5s-1.5-0.672-1.5-1.5c0-0.828 0.672-1.5 1.5-1.5s1.5 0.672 1.5 1.5z"></path>
<path class="path2" d="M16 14.5c0 0.828-0.672 1.5-1.5 1.5s-1.5-0.672-1.5-1.5c0-0.828 0.672-1.5 1.5-1.5s1.5 0.672 1.5 1.5z"></path>
<path class="path3" d="M16 8v-6h-12c0-0.552-0.448-1-1-1h-3v1h2l0.751 6.438c-0.458 0.367-0.751 0.93-0.751 1.562 0 1.105 0.895 2 2 2h12v-1h-12c-0.552 0-1-0.448-1-1 0-0.003 0-0.007 0-0.010l13-1.99z"></path>
</symbol>
<symbol id="icon-cart4" viewBox="0 0 16 16">
<title>cart4</title>
<path class="path1" d="M15.275 3.038c0.531 0.152 0.839 0.705 0.687 1.236l-2 7c-0.123 0.429-0.515 0.725-0.962 0.725h-8.5c-0.504 0-0.93-0.376-0.992-0.876l-0.89-7.124h-1.617c-0.552 0-1-0.448-1-1s0.448-1 1-1h2.5c0.504 0 0.93 0.376 0.992 0.876l0.891 7.124h6.863l1.793-6.275c0.152-0.531 0.705-0.838 1.236-0.687zM4 14.5c0-0.828 0.672-1.5 1.5-1.5s1.5 0.672 1.5 1.5c0 0.828-0.672 1.5-1.5 1.5s-1.5-0.672-1.5-1.5zM10 14.5c0-0.828 0.672-1.5 1.5-1.5s1.5 0.672 1.5 1.5c0 0.828-0.672 1.5-1.5 1.5s-1.5-0.672-1.5-1.5z"></path>
</symbol>
<symbol id="icon-credit-card" viewBox="0 0 16 16">
<title>credit-card</title>
<path class="path1" d="M14.5 2h-13c-0.825 0-1.5 0.675-1.5 1.5v9c0 0.825 0.675 1.5 1.5 1.5h13c0.825 0 1.5-0.675 1.5-1.5v-9c0-0.825-0.675-1.5-1.5-1.5zM1.5 3h13c0.271 0 0.5 0.229 0.5 0.5v1.5h-14v-1.5c0-0.271 0.229-0.5 0.5-0.5zM14.5 13h-13c-0.271 0-0.5-0.229-0.5-0.5v-4.5h14v4.5c0 0.271-0.229 0.5-0.5 0.5zM2 10h1v2h-1zM4 10h1v2h-1zM6 10h1v2h-1z"></path>
</symbol>
<symbol id="icon-box-add" viewBox="0 0 16 16">
<title>box-add</title>
<path class="path1" d="M13 1h-10l-3 3v10.5c0 0.276 0.224 0.5 0.5 0.5h15c0.276 0 0.5-0.224 0.5-0.5v-10.5l-3-3zM8 13l-5-4h3v-3h4v3h3l-5 4zM2.414 3l1-1h9.172l1 1h-11.172z"></path>
</symbol>
<symbol id="icon-bubble-dots2" viewBox="0 0 16 16">
<title>bubble-dots2</title>
<path class="path1" d="M13.063 1h-10.125c-1.616 0-2.938 1.322-2.938 2.938v11.063l3-3h10.063c1.616 0 2.938-1.322 2.938-2.938v-5.125c0-1.616-1.322-2.938-2.938-2.938zM14 9.063c0 0.508-0.429 0.938-0.938 0.938h-11.063v-6.063c0-0.508 0.429-0.938 0.938-0.938h10.125c0.508 0 0.938 0.429 0.938 0.938v5.125zM4 7c0-0.552 0.448-1 1-1s1 0.448 1 1c0 0.552-0.448 1-1 1s-1-0.448-1-1zM7 7c0-0.552 0.448-1 1-1s1 0.448 1 1c0 0.552-0.448 1-1 1s-1-0.448-1-1zM10 7c0-0.552 0.448-1 1-1s1 0.448 1 1c0 0.552-0.448 1-1 1s-1-0.448-1-1z"></path>
</symbol>
<symbol id="icon-bubble7" viewBox="0 0 16 16">
<title>bubble7</title>
<path class="path1" d="M14.5 0h-13c-0.825 0-1.5 0.675-1.5 1.5v10c0 0.825 0.675 1.5 1.5 1.5h3.429l2.571 3 2.571-3h4.429c0.825 0 1.5-0.675 1.5-1.5v-10c0-0.825-0.675-1.5-1.5-1.5zM14 11h-4.348l-2.152 2.427-2.152-2.427h-3.348v-9h12v9z"></path>
</symbol>
<symbol id="icon-user3" viewBox="0 0 16 16">
<title>user3</title>
<path class="path1" d="M4 5c0-2.209 1.791-4 4-4s4 1.791 4 4c0 2.209-1.791 4-4 4s-4-1.791-4-4zM12 10h-8c-2.209 0-4 1.791-4 4v1h16v-1c0-2.209-1.791-4-4-4z"></path>
</symbol>
<symbol id="icon-user4" viewBox="0 0 16 16">
<title>user4</title>
<path class="path1" d="M8 2c1.654 0 3 1.346 3 3s-1.346 3-3 3-3-1.346-3-3 1.346-3 3-3zM8 1c-2.209 0-4 1.791-4 4s1.791 4 4 4 4-1.791 4-4-1.791-4-4-4v0zM12 11c1.654 0 3 1.346 3 3h-14c0-1.654 1.346-3 3-3h8zM12 10h-8c-2.209 0-4 1.791-4 4v1h16v-1c0-2.209-1.791-4-4-4v0z"></path>
</symbol>
<symbol id="icon-user5" viewBox="0 0 16 16">
<title>user5</title>
<path class="path1" d="M8 9c2.209 0 4-1.791 4-4s-1.791-4-4-4-4 1.791-4 4 1.791 4 4 4zM5 5c0-0.042 0.001-0.084 0.003-0.125h5.994c0.002 0.041 0.003 0.083 0.003 0.125s-0.001 0.084-0.003 0.125h-5.994c-0.002-0.041-0.003-0.083-0.003-0.125zM5.884 2.875h4.231c0.079 0.079 0.154 0.163 0.225 0.25h-4.68c0.070-0.087 0.145-0.171 0.224-0.25zM6.169 2.625c0.12-0.092 0.247-0.176 0.38-0.25h2.902c0.133 0.074 0.26 0.158 0.38 0.25h-3.661zM10.521 3.375c0.052 0.081 0.101 0.164 0.145 0.25h-5.332c0.044-0.086 0.093-0.169 0.145-0.25h5.041zM10.781 3.875c0.033 0.082 0.063 0.165 0.089 0.25h-5.739c0.026-0.085 0.056-0.168 0.089-0.25h5.562zM10.934 4.375c0.018 0.082 0.032 0.166 0.042 0.25h-5.953c0.011-0.084 0.025-0.168 0.042-0.25h5.869zM10.977 5.375c-0.011 0.084-0.025 0.168-0.042 0.25h-5.869c-0.018-0.082-0.032-0.166-0.042-0.25h5.953zM10.87 5.875c-0.026 0.085-0.056 0.168-0.089 0.25h-5.562c-0.033-0.082-0.063-0.165-0.089-0.25h5.739zM10.666 6.375c-0.044 0.086-0.093 0.169-0.145 0.25h-5.041c-0.052-0.081-0.101-0.164-0.145-0.25h5.332zM10.116 7.125h-4.231c-0.079-0.079-0.154-0.163-0.224-0.25h4.68c-0.070 0.087-0.145 0.171-0.225 0.25zM9.831 7.375c-0.12 0.093-0.247 0.176-0.38 0.25h-2.902c-0.133-0.074-0.26-0.157-0.38-0.25h3.661zM7.143 7.875h1.714c-0.272 0.081-0.559 0.125-0.857 0.125s-0.585-0.044-0.857-0.125zM8.857 2.125h-1.714c0.272-0.081 0.559-0.125 0.857-0.125s0.585 0.044 0.857 0.125zM12 10h-8c-2.209 0-4 1.791-4 4v1h16v-1c0-2.209-1.791-4-4-4zM1.884 11.875h12.231c0.079 0.079 0.154 0.163 0.225 0.25h-12.68c0.070-0.087 0.145-0.171 0.224-0.25zM2.169 11.625c0.12-0.092 0.247-0.176 0.38-0.25h10.902c0.133 0.074 0.26 0.158 0.38 0.25h-11.661zM14.521 12.375c0.052 0.081 0.101 0.164 0.145 0.25h-13.332c0.044-0.086 0.093-0.169 0.145-0.25h13.041zM14.781 12.875c0.033 0.082 0.063 0.165 0.089 0.25h-13.739c0.026-0.085 0.056-0.168 0.089-0.25h13.562zM14.934 13.375c0.018 0.082 0.032 0.166 0.042 0.25h-13.953c0.011-0.084 0.025-0.168 0.042-0.25h13.869zM12 11c0.298 0 0.585 0.044 0.857 0.125h-9.714c0.272-0.081 0.559-0.125 0.857-0.125h8zM1 14c0-0.042 0.001-0.084 0.003-0.125h13.994c0.002 0.041 0.003 0.083 0.003 0.125h-14z"></path>
</symbol>
<symbol id="icon-user6" viewBox="0 0 16 16">
<title>user6</title>
<path class="path1" d="M11.5 5.5c0 2.485-1.567 4.5-3.5 4.5s-3.5-2.015-3.5-4.5c0-2.485 1.567-4.5 3.5-4.5s3.5 2.015 3.5 4.5z"></path>
<path class="path2" d="M7 8.922h2v2.078h-2v-2.078z"></path>
<path class="path3" d="M1 12c0-1.105 3.134-2 7-2s7 0.895 7 2z"></path>
<path class="path4" d="M1 12h14v2h-14v-2z"></path>
</symbol>
<symbol id="icon-spinner3" viewBox="0 0 16 16">
<title>spinner3</title>
<path class="path1" d="M8 4.736c-0.515 0-0.933-0.418-0.933-0.933v-2.798c0-0.515 0.418-0.933 0.933-0.933s0.933 0.418 0.933 0.933v2.798c0 0.515-0.418 0.933-0.933 0.933z"></path>
<path class="path2" d="M8 15.577c-0.322 0-0.583-0.261-0.583-0.583v-2.798c0-0.322 0.261-0.583 0.583-0.583s0.583 0.261 0.583 0.583v2.798c0 0.322-0.261 0.583-0.583 0.583z"></path>
<path class="path3" d="M5.902 5.24c-0.302 0-0.596-0.157-0.758-0.437l-1.399-2.423c-0.241-0.418-0.098-0.953 0.32-1.194s0.953-0.098 1.194 0.32l1.399 2.423c0.241 0.418 0.098 0.953-0.32 1.194-0.138 0.079-0.288 0.117-0.436 0.117z"></path>
<path class="path4" d="M11.498 14.582c-0.181 0-0.358-0.094-0.455-0.262l-1.399-2.423c-0.145-0.251-0.059-0.572 0.192-0.717s0.572-0.059 0.717 0.192l1.399 2.423c0.145 0.251 0.059 0.572-0.192 0.717-0.083 0.048-0.173 0.070-0.262 0.070z"></path>
<path class="path5" d="M4.365 6.718c-0.138 0-0.279-0.035-0.407-0.109l-2.423-1.399c-0.39-0.225-0.524-0.724-0.299-1.115s0.724-0.524 1.115-0.299l2.423 1.399c0.39 0.225 0.524 0.724 0.299 1.115-0.151 0.262-0.425 0.408-0.707 0.408z"></path>
<path class="path6" d="M14.057 11.964c-0.079 0-0.159-0.020-0.233-0.063l-2.423-1.399c-0.223-0.129-0.299-0.414-0.171-0.637s0.414-0.299 0.637-0.171l2.423 1.399c0.223 0.129 0.299 0.414 0.171 0.637-0.086 0.15-0.243 0.233-0.404 0.233z"></path>
<path class="path7" d="M3.803 8.758h-2.798c-0.418 0-0.758-0.339-0.758-0.758s0.339-0.758 0.758-0.758h2.798c0.419 0 0.758 0.339 0.758 0.758s-0.339 0.758-0.758 0.758z"></path>
<path class="path8" d="M14.995 8.466c-0 0 0 0 0 0h-2.798c-0.258-0-0.466-0.209-0.466-0.466s0.209-0.466 0.466-0.466c0 0 0 0 0 0h2.798c0.258 0 0.466 0.209 0.466 0.466s-0.209 0.466-0.466 0.466z"></path>
<path class="path9" d="M1.943 12.197c-0.242 0-0.477-0.125-0.606-0.35-0.193-0.335-0.079-0.762 0.256-0.955l2.423-1.399c0.335-0.193 0.762-0.079 0.955 0.256s0.079 0.762-0.256 0.955l-2.423 1.399c-0.11 0.064-0.23 0.094-0.349 0.094z"></path>
<path class="path10" d="M11.635 6.368c-0.161 0-0.318-0.084-0.404-0.233-0.129-0.223-0.052-0.508 0.171-0.637l2.423-1.399c0.223-0.129 0.508-0.052 0.637 0.171s0.052 0.508-0.171 0.637l-2.423 1.399c-0.073 0.042-0.154 0.063-0.233 0.063z"></path>
<path class="path11" d="M4.502 14.699c-0.109 0-0.219-0.028-0.32-0.086-0.307-0.177-0.412-0.569-0.235-0.876l1.399-2.423c0.177-0.307 0.569-0.412 0.876-0.235s0.412 0.569 0.235 0.876l-1.399 2.423c-0.119 0.206-0.334 0.321-0.556 0.321z"></path>
<path class="path12" d="M10.098 4.832c-0.079 0-0.159-0.020-0.233-0.063-0.223-0.129-0.299-0.414-0.171-0.637l1.399-2.423c0.129-0.223 0.414-0.299 0.637-0.171s0.299 0.414 0.171 0.637l-1.399 2.423c-0.086 0.15-0.243 0.233-0.404 0.233z"></path>
</symbol>
<symbol id="icon-spinner7" viewBox="0 0 16 16">
<title>spinner7</title>
<path class="path1" d="M6.5 14.5c0-0.828 0.672-1.5 1.5-1.5s1.5 0.672 1.5 1.5c0 0.828-0.672 1.5-1.5 1.5s-1.5-0.672-1.5-1.5zM0 8c0-0.828 0.672-1.5 1.5-1.5s1.5 0.672 1.5 1.5c0 0.828-0.672 1.5-1.5 1.5s-1.5-0.672-1.5-1.5zM13 8c0-0.828 0.672-1.5 1.5-1.5s1.5 0.672 1.5 1.5c0 0.828-0.672 1.5-1.5 1.5s-1.5-0.672-1.5-1.5zM1.904 3.404c0-0.828 0.672-1.5 1.5-1.5s1.5 0.672 1.5 1.5c0 0.828-0.672 1.5-1.5 1.5s-1.5-0.672-1.5-1.5zM11.096 12.596c0-0.828 0.672-1.5 1.5-1.5s1.5 0.672 1.5 1.5c0 0.828-0.672 1.5-1.5 1.5s-1.5-0.672-1.5-1.5zM1.904 12.596c0-0.828 0.672-1.5 1.5-1.5s1.5 0.672 1.5 1.5c0 0.828-0.672 1.5-1.5 1.5s-1.5-0.672-1.5-1.5zM11.096 3.404c0-0.828 0.672-1.5 1.5-1.5s1.5 0.672 1.5 1.5c0 0.828-0.672 1.5-1.5 1.5s-1.5-0.672-1.5-1.5z"></path>
</symbol>
<symbol id="icon-spinner9" viewBox="0 0 16 16">
<title>spinner9</title>
<path class="path1" d="M8 0c-4.355 0-7.898 3.481-7.998 7.812 0.092-3.779 2.966-6.812 6.498-6.812 3.59 0 6.5 3.134 6.5 7 0 0.828 0.672 1.5 1.5 1.5s1.5-0.672 1.5-1.5c0-4.418-3.582-8-8-8zM8 16c4.355 0 7.898-3.481 7.998-7.812-0.092 3.779-2.966 6.812-6.498 6.812-3.59 0-6.5-3.134-6.5-7 0-0.828-0.672-1.5-1.5-1.5s-1.5 0.672-1.5 1.5c0 4.418 3.582 8 8 8z"></path>
</symbol>
<symbol id="icon-spinner10" viewBox="0 0 16 16">
<title>spinner10</title>
<path class="path1" d="M0.001 8.025l-0 0c0 0 0 0.001 0 0.003 0.002 0.061 0.009 0.12 0.021 0.177 0.003 0.027 0.007 0.057 0.011 0.090 0.003 0.029 0.007 0.061 0.011 0.095 0.006 0.040 0.012 0.083 0.019 0.128 0.013 0.090 0.028 0.189 0.045 0.296 0.021 0.101 0.044 0.21 0.068 0.326 0.011 0.058 0.028 0.117 0.044 0.178s0.032 0.123 0.049 0.188c0.009 0.032 0.016 0.065 0.027 0.097s0.021 0.065 0.031 0.098 0.043 0.134 0.065 0.203c0.006 0.017 0.011 0.035 0.017 0.052s0.013 0.034 0.019 0.052 0.026 0.070 0.039 0.105c0.027 0.070 0.053 0.142 0.081 0.215 0.031 0.071 0.062 0.144 0.094 0.218 0.016 0.037 0.032 0.074 0.048 0.111s0.035 0.073 0.053 0.111 0.073 0.148 0.11 0.224c0.039 0.075 0.081 0.149 0.123 0.224 0.021 0.037 0.042 0.075 0.063 0.113s0.045 0.074 0.068 0.112 0.093 0.149 0.14 0.224c0.198 0.295 0.417 0.587 0.66 0.864 0.245 0.275 0.511 0.535 0.792 0.775 0.284 0.236 0.582 0.452 0.886 0.642 0.306 0.188 0.619 0.349 0.928 0.487 0.078 0.032 0.156 0.063 0.232 0.095 0.038 0.015 0.076 0.032 0.115 0.046s0.077 0.027 0.115 0.041 0.151 0.054 0.226 0.078c0.075 0.022 0.15 0.044 0.224 0.066 0.037 0.011 0.073 0.022 0.109 0.031s0.073 0.018 0.109 0.027 0.143 0.035 0.213 0.052c0.070 0.014 0.139 0.027 0.207 0.040 0.034 0.006 0.067 0.013 0.101 0.019 0.017 0.003 0.033 0.006 0.049 0.009s0.033 0.005 0.049 0.007c0.066 0.009 0.13 0.018 0.192 0.027 0.031 0.004 0.062 0.009 0.093 0.013s0.061 0.006 0.091 0.009 0.118 0.010 0.174 0.015c0.056 0.005 0.111 0.011 0.164 0.012 0.004 0 0.007 0 0.011 0 0.010 0.544 0.453 0.982 1 0.982 0.008 0 0.017-0 0.025-0.001v0c0 0 0.001-0 0.004-0 0.061-0.002 0.12-0.009 0.177-0.021 0.027-0.003 0.057-0.007 0.090-0.011 0.029-0.003 0.061-0.007 0.095-0.011 0.040-0.006 0.083-0.012 0.128-0.019 0.090-0.013 0.189-0.028 0.296-0.045 0.101-0.021 0.21-0.044 0.326-0.068 0.058-0.011 0.117-0.028 0.178-0.044s0.123-0.033 0.188-0.049c0.032-0.009 0.065-0.016 0.097-0.027s0.065-0.021 0.098-0.031 0.134-0.043 0.203-0.065c0.017-0.006 0.035-0.011 0.052-0.017s0.034-0.013 0.052-0.019 0.070-0.026 0.105-0.039c0.070-0.027 0.142-0.053 0.215-0.081 0.071-0.031 0.144-0.062 0.218-0.094 0.037-0.016 0.074-0.032 0.111-0.048s0.073-0.035 0.111-0.053 0.148-0.073 0.224-0.11c0.075-0.039 0.149-0.081 0.224-0.123 0.037-0.021 0.075-0.042 0.113-0.063s0.074-0.045 0.112-0.068 0.149-0.093 0.224-0.14c0.295-0.197 0.587-0.417 0.864-0.66 0.275-0.245 0.535-0.511 0.775-0.792 0.236-0.284 0.452-0.582 0.642-0.886 0.188-0.306 0.349-0.619 0.487-0.928 0.032-0.078 0.063-0.156 0.095-0.232 0.015-0.038 0.032-0.076 0.046-0.115s0.027-0.077 0.040-0.115 0.054-0.151 0.078-0.226c0.022-0.075 0.044-0.15 0.066-0.224 0.011-0.037 0.022-0.073 0.031-0.109s0.018-0.073 0.027-0.109 0.035-0.143 0.052-0.213c0.014-0.070 0.027-0.139 0.040-0.207 0.006-0.034 0.013-0.067 0.019-0.101 0.003-0.017 0.006-0.033 0.009-0.049s0.005-0.033 0.007-0.050c0.009-0.065 0.018-0.13 0.027-0.192 0.004-0.031 0.009-0.062 0.013-0.093s0.006-0.061 0.009-0.091 0.010-0.118 0.015-0.174c0.005-0.056 0.011-0.111 0.012-0.165 0-0.008 0.001-0.016 0.001-0.025 0.55-0.002 0.996-0.449 0.996-1 0-0.008-0-0.017-0.001-0.025h0c0 0-0-0.001-0-0.003-0.002-0.061-0.009-0.12-0.021-0.177-0.003-0.027-0.007-0.057-0.011-0.090-0.003-0.029-0.007-0.061-0.011-0.095-0.006-0.040-0.012-0.083-0.019-0.128-0.013-0.090-0.028-0.189-0.045-0.296-0.021-0.101-0.044-0.21-0.068-0.326-0.011-0.058-0.028-0.117-0.044-0.178s-0.032-0.123-0.049-0.188c-0.009-0.032-0.016-0.065-0.027-0.097s-0.021-0.065-0.031-0.098-0.043-0.134-0.065-0.203c-0.005-0.017-0.011-0.035-0.017-0.052s-0.013-0.034-0.019-0.052-0.026-0.070-0.039-0.105c-0.027-0.070-0.053-0.142-0.081-0.215-0.031-0.071-0.062-0.144-0.094-0.218-0.016-0.037-0.032-0.074-0.048-0.111s-0.035-0.073-0.053-0.111-0.073-0.148-0.11-0.224c-0.039-0.075-0.081-0.149-0.123-0.224-0.021-0.037-0.042-0.075-0.063-0.113s-0.045-0.074-0.068-0.112-0.093-0.149-0.14-0.224c-0.197-0.295-0.417-0.587-0.66-0.864-0.245-0.275-0.511-0.535-0.792-0.775-0.284-0.236-0.582-0.452-0.886-0.642-0.306-0.188-0.619-0.349-0.928-0.487-0.078-0.032-0.156-0.063-0.232-0.095-0.038-0.015-0.076-0.032-0.115-0.046s-0.077-0.027-0.115-0.040-0.151-0.054-0.226-0.078c-0.075-0.022-0.15-0.044-0.224-0.066-0.037-0.010-0.073-0.022-0.109-0.031s-0.073-0.018-0.109-0.027-0.143-0.035-0.213-0.052c-0.070-0.014-0.139-0.027-0.207-0.040-0.034-0.006-0.067-0.013-0.101-0.019-0.017-0.003-0.033-0.006-0.049-0.009s-0.033-0.005-0.049-0.007c-0.066-0.009-0.13-0.018-0.192-0.027-0.031-0.004-0.062-0.009-0.093-0.013s-0.061-0.006-0.091-0.009-0.118-0.010-0.174-0.015c-0.056-0.005-0.111-0.011-0.164-0.012-0.013-0-0.026-0.001-0.039-0.001-0.010-0.543-0.454-0.981-0.999-0.981-0.008 0-0.017 0-0.025 0.001l-0-0c0 0-0.001 0-0.003 0-0.061 0.002-0.12 0.009-0.177 0.021-0.027 0.003-0.057 0.007-0.090 0.011-0.029 0.003-0.061 0.007-0.095 0.011-0.040 0.006-0.083 0.012-0.128 0.019-0.090 0.013-0.189 0.028-0.296 0.045-0.101 0.021-0.21 0.044-0.326 0.068-0.058 0.011-0.117 0.028-0.178 0.044s-0.123 0.033-0.188 0.049c-0.032 0.009-0.065 0.016-0.097 0.027s-0.065 0.021-0.098 0.031-0.134 0.043-0.203 0.065c-0.017 0.006-0.035 0.011-0.052 0.017s-0.034 0.013-0.052 0.019-0.070 0.026-0.105 0.039c-0.070 0.027-0.142 0.053-0.215 0.081-0.071 0.031-0.144 0.062-0.218 0.094-0.037 0.016-0.074 0.032-0.111 0.048s-0.073 0.035-0.111 0.053-0.148 0.073-0.224 0.11c-0.075 0.039-0.149 0.081-0.224 0.123-0.037 0.021-0.075 0.042-0.113 0.063s-0.074 0.045-0.112 0.068-0.149 0.093-0.224 0.14c-0.295 0.198-0.587 0.417-0.864 0.66-0.275 0.245-0.535 0.511-0.775 0.792-0.236 0.284-0.452 0.582-0.642 0.886-0.188 0.306-0.349 0.619-0.487 0.928-0.032 0.078-0.063 0.156-0.095 0.232-0.015 0.038-0.032 0.076-0.046 0.115s-0.027 0.077-0.040 0.115-0.054 0.151-0.078 0.226c-0.022 0.075-0.044 0.15-0.066 0.224-0.011 0.037-0.022 0.073-0.032 0.109s-0.018 0.073-0.027 0.109-0.035 0.143-0.052 0.213c-0.014 0.070-0.027 0.139-0.040 0.207-0.006 0.034-0.013 0.067-0.019 0.101-0.003 0.017-0.006 0.033-0.009 0.049s-0.005 0.033-0.007 0.050c-0.009 0.065-0.018 0.13-0.027 0.192-0.004 0.031-0.009 0.062-0.013 0.093s-0.006 0.061-0.009 0.091-0.010 0.118-0.015 0.174c-0.005 0.056-0.011 0.111-0.012 0.165-0 0.009-0.001 0.017-0.001 0.025-0.537 0.017-0.967 0.458-0.967 0.999 0 0.008 0 0.017 0.001 0.025zM1.149 7.011c0.001-0.003 0.001-0.006 0.002-0.009 0.010-0.051 0.026-0.102 0.040-0.155s0.030-0.107 0.045-0.163c0.008-0.028 0.015-0.056 0.024-0.084s0.019-0.057 0.028-0.086 0.038-0.116 0.058-0.176c0.005-0.015 0.010-0.030 0.015-0.045s0.012-0.030 0.017-0.045 0.023-0.060 0.035-0.091 0.048-0.123 0.073-0.186c0.028-0.062 0.056-0.125 0.084-0.189 0.014-0.032 0.028-0.064 0.043-0.096s0.032-0.064 0.048-0.096 0.065-0.128 0.098-0.194c0.034-0.065 0.073-0.128 0.109-0.194 0.018-0.032 0.037-0.065 0.056-0.098s0.040-0.064 0.061-0.096c0.041-0.064 0.082-0.129 0.124-0.194 0.176-0.255 0.369-0.506 0.583-0.744 0.217-0.236 0.451-0.459 0.697-0.665 0.25-0.202 0.511-0.385 0.776-0.547 0.268-0.159 0.541-0.294 0.808-0.41 0.068-0.027 0.135-0.053 0.202-0.079 0.033-0.013 0.066-0.027 0.099-0.038s0.067-0.022 0.1-0.033 0.131-0.045 0.196-0.065c0.065-0.018 0.13-0.036 0.194-0.054 0.032-0.009 0.063-0.019 0.095-0.026s0.063-0.014 0.094-0.021 0.123-0.028 0.184-0.042c0.061-0.011 0.12-0.021 0.179-0.032 0.029-0.005 0.058-0.010 0.087-0.015 0.014-0.003 0.029-0.005 0.043-0.008s0.029-0.003 0.043-0.005c0.056-0.007 0.112-0.014 0.166-0.020 0.027-0.003 0.053-0.007 0.080-0.010s0.053-0.004 0.078-0.006 0.102-0.007 0.15-0.011c0.049-0.003 0.095-0.008 0.142-0.008 0.091-0.002 0.177-0.004 0.256-0.006 0.073 0.003 0.14 0.005 0.2 0.007 0.030 0.001 0.058 0.002 0.085 0.002 0.033 0.002 0.064 0.004 0.093 0.006 0.033 0.002 0.063 0.004 0.091 0.006 0.051 0.008 0.103 0.012 0.156 0.012 0.007 0 0.015-0 0.022-0.001 0.002 0 0.004 0 0.004 0v-0c0.487-0.012 0.887-0.372 0.962-0.84 0.008 0.002 0.017 0.004 0.025 0.006 0.051 0.010 0.102 0.026 0.155 0.040s0.107 0.030 0.163 0.045c0.028 0.008 0.056 0.015 0.084 0.024s0.057 0.019 0.086 0.028 0.116 0.038 0.176 0.058c0.015 0.005 0.030 0.010 0.045 0.015s0.030 0.012 0.045 0.017 0.060 0.023 0.091 0.035 0.123 0.048 0.186 0.073c0.062 0.028 0.125 0.056 0.189 0.084 0.032 0.014 0.064 0.028 0.096 0.043s0.064 0.032 0.096 0.048 0.128 0.065 0.194 0.098c0.065 0.034 0.129 0.073 0.194 0.109 0.032 0.018 0.065 0.037 0.098 0.056s0.064 0.040 0.096 0.061 0.129 0.082 0.194 0.124c0.255 0.176 0.506 0.369 0.744 0.583 0.236 0.217 0.459 0.451 0.665 0.697 0.202 0.25 0.385 0.511 0.547 0.776 0.159 0.268 0.294 0.541 0.41 0.808 0.027 0.068 0.053 0.135 0.079 0.202 0.013 0.033 0.027 0.066 0.038 0.099s0.022 0.067 0.033 0.1 0.045 0.131 0.065 0.196c0.018 0.065 0.036 0.13 0.054 0.194 0.009 0.032 0.019 0.063 0.026 0.095s0.014 0.063 0.021 0.094 0.028 0.123 0.042 0.184c0.011 0.061 0.021 0.12 0.032 0.179 0.005 0.029 0.010 0.058 0.015 0.087 0.003 0.014 0.005 0.029 0.008 0.043s0.003 0.029 0.005 0.043c0.007 0.056 0.014 0.112 0.020 0.166 0.003 0.027 0.007 0.053 0.010 0.080s0.004 0.053 0.006 0.078 0.007 0.102 0.011 0.15c0.003 0.049 0.008 0.095 0.008 0.142 0.002 0.091 0.004 0.177 0.006 0.256-0.003 0.073-0.005 0.14-0.007 0.2-0.001 0.030-0.002 0.058-0.002 0.085-0.002 0.033-0.004 0.064-0.006 0.093-0.002 0.033-0.004 0.063-0.006 0.091-0.008 0.051-0.012 0.103-0.012 0.156 0 0.007 0 0.015 0.001 0.022-0 0.002-0 0.004-0 0.004h0c0.012 0.481 0.363 0.877 0.823 0.959-0.001 0.005-0.002 0.009-0.003 0.014-0.010 0.051-0.025 0.102-0.040 0.155s-0.030 0.107-0.045 0.163c-0.008 0.028-0.015 0.056-0.024 0.084s-0.019 0.057-0.028 0.086-0.039 0.116-0.058 0.176c-0.005 0.015-0.010 0.030-0.015 0.045s-0.012 0.030-0.017 0.045-0.023 0.060-0.035 0.091-0.048 0.123-0.073 0.186c-0.028 0.062-0.056 0.125-0.084 0.189-0.014 0.032-0.028 0.064-0.043 0.096s-0.032 0.064-0.048 0.096-0.065 0.128-0.098 0.194c-0.034 0.065-0.073 0.129-0.109 0.194-0.018 0.032-0.037 0.065-0.056 0.098s-0.040 0.064-0.061 0.096-0.082 0.129-0.124 0.194c-0.176 0.255-0.369 0.506-0.583 0.744-0.217 0.236-0.451 0.459-0.697 0.665-0.25 0.202-0.511 0.385-0.776 0.547-0.268 0.159-0.541 0.294-0.808 0.41-0.068 0.027-0.135 0.053-0.202 0.079-0.033 0.013-0.066 0.027-0.099 0.038s-0.067 0.022-0.1 0.033-0.131 0.045-0.196 0.065c-0.065 0.018-0.13 0.036-0.194 0.054-0.032 0.009-0.063 0.019-0.095 0.026s-0.063 0.014-0.094 0.021-0.123 0.028-0.184 0.042c-0.061 0.011-0.12 0.021-0.179 0.032-0.029 0.005-0.058 0.010-0.087 0.015-0.014 0.003-0.028 0.005-0.043 0.008s-0.029 0.003-0.043 0.005c-0.056 0.007-0.112 0.014-0.166 0.020-0.027 0.003-0.053 0.007-0.080 0.010s-0.053 0.004-0.078 0.006-0.102 0.007-0.15 0.011c-0.049 0.003-0.095 0.008-0.142 0.008-0.091 0.002-0.177 0.004-0.256 0.006-0.073-0.003-0.14-0.005-0.2-0.007-0.030-0.001-0.058-0.002-0.085-0.002-0.033-0.002-0.064-0.004-0.093-0.006-0.033-0.002-0.063-0.004-0.091-0.006-0.051-0.008-0.103-0.012-0.156-0.012-0.007 0-0.015 0-0.022 0.001-0.002-0-0.003-0-0.003-0v0c-0.484 0.012-0.883 0.369-0.961 0.834-0.050-0.010-0.101-0.025-0.153-0.039s-0.107-0.030-0.163-0.045c-0.028-0.008-0.056-0.015-0.084-0.024s-0.057-0.019-0.086-0.028-0.116-0.039-0.176-0.058c-0.015-0.005-0.030-0.010-0.045-0.015s-0.030-0.012-0.045-0.017-0.060-0.023-0.091-0.035-0.123-0.048-0.186-0.073c-0.062-0.028-0.125-0.056-0.189-0.084-0.032-0.014-0.064-0.028-0.096-0.043s-0.064-0.032-0.096-0.048-0.128-0.065-0.194-0.098c-0.065-0.034-0.129-0.073-0.194-0.109-0.032-0.018-0.065-0.037-0.098-0.056s-0.064-0.040-0.096-0.061c-0.064-0.041-0.129-0.082-0.194-0.124-0.255-0.175-0.506-0.369-0.744-0.583-0.236-0.217-0.459-0.451-0.665-0.697-0.202-0.25-0.385-0.511-0.547-0.776-0.159-0.268-0.294-0.541-0.41-0.808-0.027-0.068-0.053-0.135-0.079-0.202-0.013-0.033-0.027-0.066-0.038-0.099s-0.022-0.067-0.033-0.1-0.045-0.131-0.065-0.196c-0.018-0.065-0.036-0.13-0.054-0.194-0.009-0.032-0.019-0.063-0.026-0.095s-0.014-0.063-0.021-0.094-0.028-0.123-0.042-0.184c-0.011-0.061-0.021-0.12-0.032-0.179-0.005-0.029-0.010-0.058-0.015-0.087-0.003-0.014-0.005-0.028-0.008-0.043s-0.003-0.029-0.005-0.043c-0.007-0.056-0.014-0.112-0.020-0.166-0.003-0.027-0.007-0.053-0.010-0.080s-0.004-0.053-0.006-0.078-0.007-0.101-0.011-0.15c-0.003-0.049-0.008-0.095-0.008-0.142-0.002-0.091-0.004-0.177-0.006-0.256 0.003-0.073 0.005-0.14 0.007-0.2 0.001-0.030 0.002-0.058 0.002-0.085 0.002-0.033 0.004-0.064 0.006-0.093 0.002-0.033 0.004-0.063 0.006-0.091 0.008-0.051 0.012-0.103 0.012-0.156 0-0.007-0-0.015-0.001-0.022 0-0.002 0-0.003 0-0.003h-0c-0.012-0.49-0.377-0.893-0.851-0.964z"></path>
</symbol>
<symbol id="icon-enlarge2" viewBox="0 0 16 16">
<title>enlarge2</title>
<path class="path1" d="M16 0h-6.5l2.5 2.5-3 3 1.5 1.5 3-3 2.5 2.5z"></path>
<path class="path2" d="M16 16v-6.5l-2.5 2.5-3-3-1.5 1.5 3 3-2.5 2.5z"></path>
<path class="path3" d="M0 16h6.5l-2.5-2.5 3-3-1.5-1.5-3 3-2.5-2.5z"></path>
<path class="path4" d="M0 0v6.5l2.5-2.5 3 3 1.5-1.5-3-3 2.5-2.5z"></path>
</symbol>
<symbol id="icon-enlarge7" viewBox="0 0 16 16">
<title>enlarge7</title>
<path class="path1" d="M16 0v6.5l-2.5-2.5-3 3-1.5-1.5 3-3-2.5-2.5zM7 10.5l-3 3 2.5 2.5h-6.5v-6.5l2.5 2.5 3-3z"></path>
</symbol>
<symbol id="icon-shrink7" viewBox="0 0 16 16">
<title>shrink7</title>
<path class="path1" d="M7 9v6.5l-2.5-2.5-3 3-1.5-1.5 3-3-2.5-2.5zM16 1.5l-3 3 2.5 2.5h-6.5v-6.5l2.5 2.5 3-3z"></path>
</symbol>
<symbol id="icon-lock2" viewBox="0 0 16 16">
<title>lock2</title>
<path class="path1" d="M13 7h-1v-3c0-2.209-1.791-4-4-4s-4 1.791-4 4v3h-1c-0.55 0-1 0.45-1 1v7c0 0.55 0.45 1 1 1h10c0.55 0 1-0.45 1-1v-7c0-0.55-0.45-1-1-1zM8 13c-0.552 0-1-0.448-1-1s0.448-1 1-1 1 0.448 1 1-0.448 1-1 1zM10 7h-4v-3c0-1.103 0.897-2 2-2s2 0.897 2 2v3z"></path>
</symbol>
<symbol id="icon-unlocked2" viewBox="0 0 16 16">
<title>unlocked2</title>
<path class="path1" d="M12 1h-2c-1.654 0-3 1.346-3 3v3h-6.25c-0.412 0-0.75 0.338-0.75 0.75v7.5c0 0.412 0.338 0.75 0.75 0.75h8.5c0.412 0 0.75-0.338 0.75-0.75v-7.5c0-0.412-0.338-0.75-0.75-0.75h-0.25v-3c0-0.551 0.449-1 1-1h2c0.551 0 1 0.449 1 1v3h2v-3c0-1.654-1.346-3-3-3zM6 14h-2l0.435-2.175c-0.263-0.18-0.435-0.482-0.435-0.825 0-0.552 0.448-1 1-1s1 0.448 1 1c0 0.343-0.172 0.645-0.435 0.825l0.435 2.175z"></path>
</symbol>
<symbol id="icon-cog" viewBox="0 0 16 16">
<title>cog</title>
<path class="path1" d="M14.59 9.535c-0.839-1.454-0.335-3.317 1.127-4.164l-1.572-2.723c-0.449 0.263-0.972 0.414-1.529 0.414-1.68 0-3.042-1.371-3.042-3.062h-3.145c0.004 0.522-0.126 1.051-0.406 1.535-0.839 1.454-2.706 1.948-4.17 1.106l-1.572 2.723c0.453 0.257 0.845 0.634 1.123 1.117 0.838 1.452 0.336 3.311-1.12 4.16l1.572 2.723c0.448-0.261 0.967-0.41 1.522-0.41 1.675 0 3.033 1.362 3.042 3.046h3.145c-0.001-0.517 0.129-1.040 0.406-1.519 0.838-1.452 2.7-1.947 4.163-1.11l1.572-2.723c-0.45-0.257-0.839-0.633-1.116-1.113zM8 11.24c-1.789 0-3.24-1.45-3.24-3.24s1.45-3.24 3.24-3.24c1.789 0 3.24 1.45 3.24 3.24s-1.45 3.24-3.24 3.24z"></path>
</symbol>
<symbol id="icon-cog7" viewBox="0 0 16 16">
<title>cog7</title>
<path class="path1" d="M16 7l-3.767-0.753 2.131-3.196-1.414-1.414-3.196 2.131-0.753-3.767h-2l-0.753 3.767-3.196-2.131-1.414 1.414 2.131 3.196-3.767 0.753v2l3.767 0.753-2.131 3.196 1.414 1.414 3.196-2.131 0.753 3.767h2l0.753-3.767 3.196 2.131 1.414-1.414-2.131-3.196 3.767-0.753v-2zM8 11c-1.657 0-3-1.343-3-3s1.343-3 3-3 3 1.343 3 3-1.343 3-3 3z"></path>
<path class="path2" d="M9 8c0 0.552-0.448 1-1 1s-1-0.448-1-1c0-0.552 0.448-1 1-1s1 0.448 1 1z"></path>
</symbol>
<symbol id="icon-bin" viewBox="0 0 16 16">
<title>bin</title>
<path class="path1" d="M2 5v10c0 0.55 0.45 1 1 1h9c0.55 0 1-0.45 1-1v-10h-11zM5 14h-1v-7h1v7zM7 14h-1v-7h1v7zM9 14h-1v-7h1v7zM11 14h-1v-7h1v7z"></path>
<path class="path2" d="M13.25 2h-3.25v-1.25c0-0.412-0.338-0.75-0.75-0.75h-3.5c-0.412 0-0.75 0.338-0.75 0.75v1.25h-3.25c-0.413 0-0.75 0.337-0.75 0.75v1.25h13v-1.25c0-0.413-0.338-0.75-0.75-0.75zM9 2h-3v-0.987h3v0.987z"></path>
</symbol>
<symbol id="icon-bin2" viewBox="0 0 16 16">
<title>bin2</title>
<path class="path1" d="M3 16h10l1-11h-12zM10 2v-2h-4v2h-5v3l1-1h12l1 1v-3h-5zM9 2h-2v-1h2v1z"></path>
</symbol>
<symbol id="icon-plus3" viewBox="0 0 16 16">
<title>plus3</title>
<path class="path1" d="M15 7h-6v-6h-2v6h-6v2h6v6h2v-6h6z"></path>
</symbol>
<symbol id="icon-cross" viewBox="0 0 16 16">
<title>cross</title>
<path class="path1" d="M15.854 12.854c-0-0-0-0-0-0l-4.854-4.854 4.854-4.854c0-0 0-0 0-0 0.052-0.052 0.090-0.113 0.114-0.178 0.066-0.178 0.028-0.386-0.114-0.529l-2.293-2.293c-0.143-0.143-0.351-0.181-0.529-0.114-0.065 0.024-0.126 0.062-0.178 0.114 0 0-0 0-0 0l-4.854 4.854-4.854-4.854c-0-0-0-0-0-0-0.052-0.052-0.113-0.090-0.178-0.114-0.178-0.066-0.386-0.029-0.529 0.114l-2.293 2.293c-0.143 0.143-0.181 0.351-0.114 0.529 0.024 0.065 0.062 0.126 0.114 0.178 0 0 0 0 0 0l4.854 4.854-4.854 4.854c-0 0-0 0-0 0-0.052 0.052-0.090 0.113-0.114 0.178-0.066 0.178-0.029 0.386 0.114 0.529l2.293 2.293c0.143 0.143 0.351 0.181 0.529 0.114 0.065-0.024 0.126-0.062 0.178-0.114 0-0 0-0 0-0l4.854-4.854 4.854 4.854c0 0 0 0 0 0 0.052 0.052 0.113 0.090 0.178 0.114 0.178 0.066 0.386 0.029 0.529-0.114l2.293-2.293c0.143-0.143 0.181-0.351 0.114-0.529-0.024-0.065-0.062-0.126-0.114-0.178z"></path>
</symbol>
<symbol id="icon-cross2" viewBox="0 0 16 16">
<title>cross2</title>
<path class="path1" d="M13.957 3.457l-1.414-1.414-4.543 4.543-4.543-4.543-1.414 1.414 4.543 4.543-4.543 4.543 1.414 1.414 4.543-4.543 4.543 4.543 1.414-1.414-4.543-4.543z"></path>
</symbol>
<symbol id="icon-cross3" viewBox="0 0 16 16">
<title>cross3</title>
<path class="path1" d="M12.207 10.793l-1.414 1.414-2.793-2.793-2.793 2.793-1.414-1.414 2.793-2.793-2.793-2.793 1.414-1.414 2.793 2.793 2.793-2.793 1.414 1.414-2.793 2.793 2.793 2.793z"></path>
</symbol>
<symbol id="icon-checkmark" viewBox="0 0 16 16">
<title>checkmark</title>
<path class="path1" d="M13.5 2l-7.5 7.5-3.5-3.5-2.5 2.5 6 6 10-10z"></path>
</symbol>
<symbol id="icon-arrow-up2" viewBox="0 0 16 16">
<title>arrow-up2</title>
<path class="path1" d="M0 10.5l2 2 6-6 6 6 2-2-8-8-8 8z"></path>
</symbol>
<symbol id="icon-arrow-up3" viewBox="0 0 16 16">
<title>arrow-up3</title>
<path class="path1" d="M0 10.5l1.5 1.5 6.5-6.5 6.5 6.5 1.5-1.5-8-8-8 8z"></path>
</symbol>
<symbol id="icon-arrow-up4" viewBox="0 0 16 16">
<title>arrow-up4</title>
<path class="path1" d="M0 10.5l1 1 7-7 7 7 1-1-8-8-8 8z"></path>
</symbol>
<symbol id="icon-arrow-right3" viewBox="0 0 16 16">
<title>arrow-right3</title>
<path class="path1" d="M5.5 0l-1.5 1.5 6.5 6.5-6.5 6.5 1.5 1.5 8-8-8-8z"></path>
</symbol>
<symbol id="icon-arrow-left" viewBox="0 0 16 16">
<title>arrow-left</title>
<path class="path1" d="M10.5 16l3-3-5-5 5-5-3-3-8 8z"></path>
</symbol>
<symbol id="icon-arrow-left2" viewBox="0 0 16 16">
<title>arrow-left2</title>
<path class="path1" d="M10.5 16l2-2-6-6 6-6-2-2-8 8 8 8z"></path>
</symbol>
<symbol id="icon-arrow-left3" viewBox="0 0 16 16">
<title>arrow-left3</title>
<path class="path1" d="M10.5 16l1.5-1.5-6.5-6.5 6.5-6.5-1.5-1.5-8 8 8 8z"></path>
</symbol>
<symbol id="icon-arrow-left4" viewBox="0 0 16 16">
<title>arrow-left4</title>
<path class="path1" d="M10.5 16l1-1-7-7 7-7-1-1-8 8 8 8z"></path>
</symbol>
<symbol id="icon-arrow-up5" viewBox="0 0 16 16">
<title>arrow-up5</title>
<path class="path1" d="M12.5 10l-4.5-4.5-4.5 4.5h9z"></path>
</symbol>
<symbol id="icon-arrow-right5" viewBox="0 0 16 16">
<title>arrow-right5</title>
<path class="path1" d="M6 12.5l4.5-4.5-4.5-4.5v9z"></path>
</symbol>
<symbol id="icon-arrow-left5" viewBox="0 0 16 16">
<title>arrow-left5</title>
<path class="path1" d="M10 3.5l-4.5 4.5 4.5 4.5v-9z"></path>
</symbol>
<symbol id="icon-arrow-up-left" viewBox="0 0 16 16">
<title>arrow-up-left</title>
<path class="path1" d="M0 11.5l4-4 8.5 8.5 3.5-3.5-8.5-8.5 4-4h-11.5v11.5z"></path>
</symbol>
<symbol id="icon-arrow-up6" viewBox="0 0 16 16">
<title>arrow-up6</title>
<path class="path1" d="M8 0.5l-7.5 7.5h4.5v8h6v-8h4.5z"></path>
</symbol>
<symbol id="icon-arrow-up-right" viewBox="0 0 16 16">
<title>arrow-up-right</title>
<path class="path1" d="M4.5 0l4 4-8.5 8.5 3.5 3.5 8.5-8.5 4 4v-11.5h-11.5z"></path>
</symbol>
<symbol id="icon-arrow-right6" viewBox="0 0 16 16">
<title>arrow-right6</title>
<path class="path1" d="M15.5 8l-7.5-7.5v4.5h-8v6h8v4.5z"></path>
</symbol>
<symbol id="icon-arrow-down-right" viewBox="0 0 16 16">
<title>arrow-down-right</title>
<path class="path1" d="M16 4.5l-4 4-8.5-8.5-3.5 3.5 8.5 8.5-4 4h11.5v-11.5z"></path>
</symbol>
<symbol id="icon-arrow-down6" viewBox="0 0 16 16">
<title>arrow-down6</title>
<path class="path1" d="M8 15.5l7.5-7.5h-4.5v-8h-6v8h-4.5z"></path>
</symbol>
<symbol id="icon-arrow-down-left" viewBox="0 0 16 16">
<title>arrow-down-left</title>
<path class="path1" d="M11.5 16l-4-4 8.5-8.5-3.5-3.5-8.5 8.5-4-4v11.5h11.5z"></path>
</symbol>
<symbol id="icon-arrow-left6" viewBox="0 0 16 16">
<title>arrow-left6</title>
<path class="path1" d="M0.5 8l7.5 7.5v-4.5h8v-6h-8v-4.5z"></path>
</symbol>
<symbol id="icon-circle-up2" viewBox="0 0 16 16">
<title>circle-up2</title>
<path class="path1" d="M0 8c0 4.418 3.582 8 8 8s8-3.582 8-8-3.582-8-8-8-8 3.582-8 8zM14.5 8c0 3.59-2.91 6.5-6.5 6.5s-6.5-2.91-6.5-6.5 2.91-6.5 6.5-6.5 6.5 2.91 6.5 6.5z"></path>
<path class="path2" d="M11.043 10.457l1.414-1.414-4.457-4.457-4.457 4.457 1.414 1.414 3.043-3.043z"></path>
</symbol>
<symbol id="icon-circle-down2" viewBox="0 0 16 16">
<title>circle-down2</title>
<path class="path1" d="M16 8c0-4.418-3.582-8-8-8s-8 3.582-8 8 3.582 8 8 8 8-3.582 8-8zM1.5 8c0-3.59 2.91-6.5 6.5-6.5s6.5 2.91 6.5 6.5-2.91 6.5-6.5 6.5-6.5-2.91-6.5-6.5z"></path>
<path class="path2" d="M4.957 5.543l-1.414 1.414 4.457 4.457 4.457-4.457-1.414-1.414-3.043 3.043z"></path>
</symbol>
<symbol id="icon-checkbox-checked2" viewBox="0 0 16 16">
<title>checkbox-checked2</title>
<path class="path1" d="M14 0h-12c-1.1 0-2 0.9-2 2v12c0 1.1 0.9 2 2 2h12c1.1 0 2-0.9 2-2v-12c0-1.1-0.9-2-2-2zM7 12.414l-3.707-3.707 1.414-1.414 2.293 2.293 4.793-4.793 1.414 1.414-6.207 6.207z"></path>
</symbol>
<symbol id="icon-google-plus2" viewBox="0 0 16 16">
<title>google-plus2</title>
<path class="path1" d="M14.5 0h-13c-0.825 0-1.5 0.675-1.5 1.5v13c0 0.825 0.675 1.5 1.5 1.5h13c0.825 0 1.5-0.675 1.5-1.5v-13c0-0.825-0.675-1.5-1.5-1.5zM6 12c-2.212 0-4-1.787-4-4s1.788-4 4-4c1.081 0 1.984 0.394 2.681 1.047l-1.088 1.044c-0.297-0.284-0.816-0.616-1.594-0.616-1.366 0-2.481 1.131-2.481 2.525s1.116 2.525 2.481 2.525c1.584 0 2.178-1.137 2.269-1.725h-2.269v-1.372h3.778c0.034 0.2 0.063 0.4 0.063 0.663 0 2.287-1.531 3.909-3.841 3.909zM14 8h-1v1h-1v-1h-1v-1h1v-1h1v1h1v1z"></path>
</symbol>
<symbol id="icon-facebook2" viewBox="0 0 16 16">
<title>facebook2</title>
<path class="path1" d="M14.5 0h-13c-0.825 0-1.5 0.675-1.5 1.5v13c0 0.825 0.675 1.5 1.5 1.5h6.5v-7h-2v-2h2v-1c0-1.653 1.347-3 3-3h2v2h-2c-0.55 0-1 0.45-1 1v1h3l-0.5 2h-2.5v7h4.5c0.825 0 1.5-0.675 1.5-1.5v-13c0-0.825-0.675-1.5-1.5-1.5z"></path>
</symbol>
<symbol id="icon-twitter" viewBox="0 0 16 16">
<title>twitter</title>
<path class="path1" d="M16 3.538c-0.588 0.263-1.222 0.438-1.884 0.516 0.678-0.406 1.197-1.050 1.444-1.816-0.634 0.375-1.338 0.65-2.084 0.797-0.6-0.638-1.453-1.034-2.397-1.034-1.813 0-3.281 1.469-3.281 3.281 0 0.256 0.028 0.506 0.084 0.747-2.728-0.138-5.147-1.444-6.766-3.431-0.281 0.484-0.444 1.050-0.444 1.65 0 1.138 0.578 2.144 1.459 2.731-0.538-0.016-1.044-0.166-1.488-0.409 0 0.013 0 0.028 0 0.041 0 1.591 1.131 2.919 2.634 3.219-0.275 0.075-0.566 0.116-0.866 0.116-0.212 0-0.416-0.022-0.619-0.059 0.419 1.303 1.631 2.253 3.066 2.281-1.125 0.881-2.538 1.406-4.078 1.406-0.266 0-0.525-0.016-0.784-0.047 1.456 0.934 3.181 1.475 5.034 1.475 6.037 0 9.341-5.003 9.341-9.341 0-0.144-0.003-0.284-0.009-0.425 0.641-0.459 1.197-1.038 1.637-1.697z"></path>
</symbol>
<symbol id="icon-rss2" viewBox="0 0 16 16">
<title>rss2</title>
<path class="path1" d="M14.5 0h-13c-0.825 0-1.5 0.675-1.5 1.5v13c0 0.825 0.675 1.5 1.5 1.5h13c0.825 0 1.5-0.675 1.5-1.5v-13c0-0.825-0.675-1.5-1.5-1.5zM4.359 12.988c-0.75 0-1.359-0.603-1.359-1.353 0-0.744 0.609-1.356 1.359-1.356 0.753 0 1.359 0.613 1.359 1.356 0 0.75-0.609 1.353-1.359 1.353zM7.772 13c0-1.278-0.497-2.481-1.397-3.381-0.903-0.903-2.1-1.4-3.375-1.4v-1.956c3.713 0 6.738 3.022 6.738 6.737h-1.966zM11.244 13c0-4.547-3.697-8.25-8.241-8.25v-1.956c5.625 0 10.203 4.581 10.203 10.206h-1.963z"></path>
</symbol>
<symbol id="icon-tumblr2" viewBox="0 0 16 16">
<title>tumblr2</title>
<path class="path1" d="M14.5 0h-13c-0.825 0-1.5 0.675-1.5 1.5v13c0 0.825 0.675 1.5 1.5 1.5h13c0.825 0 1.5-0.675 1.5-1.5v-13c0-0.825-0.675-1.5-1.5-1.5zM11.434 12.884c-0.472 0.222-0.9 0.378-1.281 0.469-0.381 0.088-0.797 0.134-1.241 0.134-0.506 0-0.803-0.063-1.191-0.191s-0.719-0.309-0.994-0.544c-0.275-0.238-0.463-0.488-0.569-0.753s-0.159-0.65-0.159-1.156v-3.872h-1.5v-1.563c0.434-0.141 0.938-0.344 1.244-0.606 0.309-0.263 0.559-0.578 0.744-0.947 0.188-0.369 0.316-0.837 0.388-1.406h1.569v2.55h2.556v1.972h-2.553v2.831c0 0.641-0.009 1.009 0.059 1.191s0.238 0.369 0.422 0.475c0.244 0.147 0.525 0.219 0.838 0.219 0.559 0 1.116-0.181 1.669-0.544v1.741z"></path>
</symbol>
<symbol id="icon-skype" viewBox="0 0 16 16">
<title>skype</title>
<path class="path1" d="M6.65 0.584c-0.025-0.016-0.053-0.028-0.078-0.041-0.028 0.006-0.053 0.009-0.081 0.016l0.159 0.025z"></path>
<path class="path2" d="M0.575 6.578c-0.006 0.028-0.009 0.056-0.012 0.081 0.016 0.025 0.025 0.050 0.041 0.075l-0.028-0.156z"></path>
<path class="path3" d="M15.419 9.416c0.006-0.028 0.009-0.056 0.016-0.084-0.016-0.025-0.025-0.050-0.041-0.075l0.025 0.159z"></path>
<path class="path4" d="M9.25 15.359c0.025 0.016 0.053 0.028 0.078 0.041 0.028-0.006 0.056-0.009 0.084-0.012l-0.162-0.028z"></path>
<path class="path5" d="M15.434 9.331c-0.006 0.028-0.009 0.056-0.016 0.084l-0.028-0.162c0.016 0.028 0.028 0.053 0.044 0.078 0.081-0.45 0.125-0.909 0.125-1.369 0-1.019-0.2-2.009-0.594-2.941-0.381-0.9-0.925-1.709-1.619-2.403s-1.503-1.238-2.4-1.619c-0.931-0.394-1.922-0.594-2.941-0.594-0.481 0-0.963 0.044-1.431 0.134 0 0-0.003 0-0.003 0 0.025 0.012 0.053 0.025 0.078 0.041l-0.159-0.025c0.028-0.006 0.053-0.009 0.081-0.016-0.644-0.341-1.366-0.525-2.097-0.525-1.194 0-2.319 0.466-3.163 1.309s-1.309 1.969-1.309 3.163c0 0.759 0.197 1.509 0.563 2.169 0.006-0.028 0.009-0.056 0.012-0.081l0.028 0.159c-0.016-0.025-0.028-0.050-0.041-0.075-0.075 0.428-0.112 0.866-0.112 1.303 0 1.019 0.2 2.009 0.594 2.941 0.381 0.9 0.925 1.706 1.619 2.4s1.503 1.238 2.403 1.619c0.931 0.394 1.922 0.594 2.941 0.594 0.444 0 0.887-0.041 1.322-0.119-0.025-0.016-0.050-0.028-0.078-0.041l0.162 0.028c-0.028 0.006-0.056 0.009-0.084 0.012 0.669 0.378 1.428 0.581 2.2 0.581 1.194 0 2.319-0.466 3.162-1.309s1.309-1.969 1.309-3.162c-0.003-0.759-0.2-1.509-0.569-2.175zM8.034 12.591c-2.684 0-3.884-1.319-3.884-2.309 0-0.506 0.375-0.863 0.891-0.863 1.15 0 0.85 1.65 2.994 1.65 1.097 0 1.703-0.597 1.703-1.206 0-0.366-0.181-0.772-0.903-0.95l-2.388-0.597c-1.922-0.481-2.272-1.522-2.272-2.5 0-2.028 1.909-2.791 3.703-2.791 1.653 0 3.6 0.913 3.6 2.131 0 0.522-0.453 0.825-0.969 0.825-0.981 0-0.8-1.356-2.775-1.356-0.981 0-1.522 0.444-1.522 1.078s0.775 0.838 1.447 0.991l1.769 0.394c1.934 0.431 2.425 1.563 2.425 2.625 0 1.647-1.266 2.878-3.819 2.878z"></path>
</symbol>
</defs>
</svg>
